<?xml version="1.0" encoding="iso-8859-1"?>
<!-- Generator: Adobe Illustrator 25.2.3, SVG Export Plug-In . SVG Version: 6.00 Build 0)  -->
<svg version="1.1" baseProfile="basic" id="fluent" xmlns="http://www.w3.org/2000/svg" xmlns:xlink="http://www.w3.org/1999/xlink"
	 x="0px" y="0px" viewBox="0 0 48 48" xml:space="preserve">
<path style="fill:white;stroke:#000000;stroke-width:3;stroke-miterlimit:10;" d="M22.064,23.986l11.689-8.895"/>
<path style="fill:white;stroke:#000000;stroke-width:3;stroke-miterlimit:10;" d="M10.566,24.159
	c-3.211,2.923-5.431,4.944-5.431,4.944c-0.878,0.81-0.828,2.211,0.104,2.957c0,0,1.291,1.202,1.759,1.535
	c0.718,0.512,1.661,0.571,2.372,0.05l6.38-4.855"/>
<path style="fill:white;stroke:#000000;stroke-width:3;stroke-miterlimit:10;" d="M33.754,32.926L9.37,14.342
	c-0.711-0.521-1.654-0.462-2.372,0.05c-0.467,0.334-1.759,1.535-1.759,1.535c-0.932,0.746-0.982,2.148-0.104,2.957l26.331,23.952
	c0.693,0.631,1.696,0.78,2.54,0.373c2.66-1.28,6.497-3.128,8.094-3.898c0.862-0.415,1.407-1.286,1.407-2.242V10.871
	c0-0.958-0.549-1.83-1.414-2.242c-1.491-0.712-5.165-2.465-8.104-3.868c-0.844-0.403-1.839-0.256-2.531,0.374
	c-3.489,3.179-9.819,8.942-15.397,14.021"/>
<path style="fill:white;stroke:#000000;stroke-width:3;stroke-miterlimit:10;" d="M33.5,43V5"/>
</svg>